<?xml version="1.0" encoding="utf-8"?>
<!-- Generator: Adobe Illustrator 16.0.0, SVG Export Plug-In . SVG Version: 6.00 Build 0)  -->
<!DOCTYPE svg PUBLIC "-//W3C//DTD SVG 1.1//EN" "http://www.w3.org/Graphics/SVG/1.1/DTD/svg11.dtd">
<svg version="1.1" id="Layer_1" xmlns="http://www.w3.org/2000/svg" xmlns:xlink="http://www.w3.org/1999/xlink" x="0px" y="0px"
	 width="154.011px" height="106.881px" viewBox="0 0 154.011 106.881" enable-background="new 0 0 154.011 106.881"
	 xml:space="preserve">
<g>
	<defs>
		<rect id="SVGID_1_" x="-9.638" y="-33.488" width="174" height="174"/>
	</defs>
	<clipPath id="SVGID_2_">
		<use xlink:href="#SVGID_1_"  overflow="visible"/>
	</clipPath>
	<path clip-path="url(#SVGID_2_)" fill-rule="evenodd" clip-rule="evenodd" fill="#2E98D3" d="M59.174,31.082h6.789
		c2.275-4.557,5.598-8.899,10.613-11.502c24.084-12.513,43.308,6.078,43.308,6.078S108.215,9.904,89.389,10.029
		C79.538,10.097,65.395,15.548,59.174,31.082 M68.17,76.065c2.969,2.109,5.306,2.989,5.306,2.989s-1.476-0.997-3.44-2.989H68.17z
		 M48.249,76.065H37.367c3.903,5.874,16.599,17.932,37.439,17.747c21.999-0.196,31.817-14.328,31.817-14.328
		c-5.858,5.496-15.977,8.833-26.955,9.121C68.92,88.888,54.57,83.388,48.249,76.065 M54.083,76.065
		c12.03,11.524,33.099,8.629,33.099,8.629s-13.551,0.143-25.021-8.629H54.083z M114.284,31.082l4.394,0.009
		c-7.729-9.731-17.795-12.813-17.795-12.813S108.279,21.414,114.284,31.082 M119.112,76.065
		c-6.354,18.005-21.771,25.129-21.771,25.129s19.044-5.354,26.81-25.129H119.112z M48.728,29.132
		c-0.202,0.559-0.442,1.212-0.69,1.95l7.449,0.004c0.374-0.823,0.771-1.626,1.198-2.389c7.59-13.61,19.753-26.976,48.614-19.534
		c0,0-14.902-9.469-31.822-3.906C57.41,10.535,50.683,23.868,48.728,29.132 M34.146,28.697c3.757-9.36,7.514-13.46,7.514-13.46
		c-6.24,4.457-10.61,13.46-10.61,13.46l-1.282,2.385h3.461C33.229,31.082,33.846,29.435,34.146,28.697 M36.191,31.082h8.212
		c0.251-0.783,0.511-1.579,0.788-2.385C53.345,5.098,75.245,1.784,75.245,1.784C53.15,1.779,40.954,18.278,37.238,28.262
		C36.905,29.16,36.556,30.105,36.191,31.082 M115.639,76.065h-2.872c-9.924,17.138-30.389,20.637-38.401,20.789
		c-9.458,0.171-31.529-5.559-40.382-20.782l-6.751-0.007c3.099,8.092,11.028,14.887,14.428,17.747
		c13.007,10.933,26.379,10.604,30.494,11.289c1.314,0.216,16.727,1.515,31.816-11.289C110.313,88.431,113.789,81.801,115.639,76.065
		"/>
	<path clip-path="url(#SVGID_2_)" fill="#626B6B" d="M17.547,49.899c0,4.934-3.194,8.537-8.249,8.537
		c-1.097,0-2.509-0.283-3.482-0.811v9.92H2.579V42.041H8.08C13.176,42.041,17.547,44.272,17.547,49.899 M5.816,44.638v10.321
		c0.934,0.398,2.304,0.849,3.279,0.849c3.319,0,5.217-2.873,5.217-5.953c0-3.684-2.873-5.217-6.232-5.217H5.816z"/>
	<path clip-path="url(#SVGID_2_)" fill="#626B6B" d="M30.734,50.464c0,0-0.645-0.524-1.817-0.524c-1.375,0-2.548,1.294-3.397,2.142
		v15.463h-3.075V47.713h3.117v1.579c0.848-0.853,1.817-2.191,4.285-2.191c1.095,0,1.983,0.613,1.983,0.613L30.734,50.464z"/>
	<path clip-path="url(#SVGID_2_)" fill="#626B6B" d="M36.767,40.02c1.172,0,2.224,0.848,2.224,2.066
		c0,1.253-1.136,2.146-2.305,2.146c-1.176,0-2.223-0.852-2.223-2.069C34.463,40.913,35.591,40.02,36.767,40.02 M38.337,67.545h-2.99
		V47.713h2.99V67.545z"/>
	<path clip-path="url(#SVGID_2_)" fill="#626B6B" d="M66.539,67.545V52.487c0-1.821-0.567-2.872-2.548-2.872
		c-1.781,0-3.806,0.687-5.176,1.821c0.041,0.361,0.041,0.686,0.041,1.05v15.058h-3.076V52.487c0-1.821-0.568-2.872-2.548-2.872
		c-1.902,0-3.765,0.929-5.176,2.064v15.865h-3.075V47.712h3.075v1.458c1.575-1.137,3.477-2.07,5.46-2.07
		c1.817,0,3.758,0.328,4.69,2.109c1.42-1.136,4.293-2.109,6.07-2.109c3.639,0,5.34,1.745,5.34,5.387v15.058H66.539z"/>
	<path clip-path="url(#SVGID_2_)" fill="#626B6B" d="M77.983,56.659v0.768c0,2.831,1.138,8.296,4.817,8.296
		c1.541,0,4.333-1.618,5.622-2.507l0.975,1.939c-1.745,1.497-4.613,2.994-6.914,2.994c-5.785,0-7.648-6.311-7.648-11.048
		c0-4.857,3.113-10.002,8.411-10.002c4.006,0,6.638,3.77,6.881,7.495c0.041,0.686,0.041,1.37,0.078,2.064H77.983z M82.962,49.535
		c-2.548,0-4.125,2.588-4.608,4.816h8.618C86.972,52.083,85.514,49.535,82.962,49.535"/>
	<path clip-path="url(#SVGID_2_)" fill="#626B6B" d="M106.795,44.431l-1.822,1.537c-0.97-1.213-2.628-1.939-4.167-1.939
		c-2.183,0-3.923,1.294-3.923,3.603c0,5.989,10.926,5.425,10.926,13.6c0,4.288-3.441,6.918-7.53,6.918
		c-2.061,0-4.487-1.048-6.065-2.387l1.375-2.308c1.173,0.97,3.198,2.105,4.731,2.105c2.549,0,4.373-1.821,4.373-4.374
		c0-5.262-10.971-5.501-10.971-13.072c0-4.329,2.877-6.679,7.084-6.679C103.033,41.436,105.577,42.528,106.795,44.431"/>
	<path clip-path="url(#SVGID_2_)" fill="#626B6B" d="M127.227,57.665c0,4.658-2.475,10.484-7.896,10.484
		c-5.417,0-7.884-5.826-7.884-10.484c0-4.649,2.428-10.565,7.884-10.565C124.792,47.1,127.227,53.016,127.227,57.665
		 M114.523,57.665c0,3.039,1.456,8.058,4.808,8.058c3.358,0,4.816-5.019,4.816-8.058c0-3.03-1.458-8.13-4.816-8.13
		C115.979,49.535,114.523,54.635,114.523,57.665"/>
	<path clip-path="url(#SVGID_2_)" fill="#626B6B" d="M135.966,45.08v2.633h3.919v2.349h-3.919v17.483h-3.075V50.062l-2.669-0.366
		v-1.983h2.669v-3.157c0-4.661,4.894-5.387,6.917-5.627l0.564,2.386C140.21,41.314,135.966,41.598,135.966,45.08"/>
	<path clip-path="url(#SVGID_2_)" fill="#626B6B" d="M148.016,68.148c-1.898,0-3.554-1.128-3.554-4.527V50.063l-2.674-0.366v-1.984
		h2.831v-3.526h2.833v3.526h4.004v2.35h-3.923v13.393c0,1.74,0.645,2.227,1.578,2.227c1.006,0,2.345-0.567,2.345-0.567l0.688,1.906
		C152.145,67.021,150.36,68.148,148.016,68.148"/>
</g>
</svg>
